<?xml version="1.0" standalone="no"?>
<!DOCTYPE svg PUBLIC "-//W3C//DTD SVG 20010904//EN"
 "http://www.w3.org/TR/2001/REC-SVG-20010904/DTD/svg10.dtd">
<svg version="1.0" xmlns="http://www.w3.org/2000/svg"
 width="1200.000000pt" height="1740.000000pt" viewBox="0 0 1200.000000 1740.000000"
 preserveAspectRatio="xMidYMid meet">

<g transform="translate(0.000000,1740.000000) scale(0.100000,-0.100000)"
fill="#000000" stroke="none">
<path d="M393 17386 c-183 -45 -344 -210 -382 -394 -16 -76 -16 -16528 0
-16604 29 -140 147 -292 274 -354 l60 -29 5642 -3 5642 -2 53 24 c145 64 254
192 293 343 13 50 15 1028 15 8323 0 7390 -2 8272 -15 8325 -49 185 -207 335
-393 374 -82 17 -11118 14 -11189 -3z m11228 -46 c173 -53 304 -207 329 -385
13 -96 13 -16434 0 -16528 -26 -181 -164 -339 -339 -391 -50 -15 -557 -16
-5616 -16 -5047 0 -5566 1 -5616 16 -148 43 -274 168 -320 315 -19 59 -19 242
-19 8338 0 7526 1 8282 16 8332 43 146 167 273 312 320 55 17 253 18 5623 18
5506 1 5568 1 5630 -19z"/>
<path d="M790 16223 c-168 -410 -313 -766 -322 -790 l-18 -44 112 3 113 3 89
228 90 227 362 0 362 0 92 -230 92 -230 109 0 109 0 -17 41 c-9 23 -152 377
-319 788 l-302 746 -124 3 -123 2 -305 -747z m456 495 c15 -46 80 -220 146
-387 65 -167 117 -305 115 -307 -2 -3 -135 -3 -295 -2 l-291 3 110 280 c60
154 125 328 145 388 20 59 37 107 39 107 2 0 16 -37 31 -82z"/>
<path d="M1210 15184 c0 -27 -131 -206 -332 -457 -328 -406 -449 -590 -504
-765 -23 -71 -26 -95 -22 -167 9 -144 72 -241 194 -301 52 -25 70 -29 149 -29
75 0 98 4 140 24 49 24 159 127 258 241 l48 55 -7 -50 c-15 -122 -135 -472
-190 -557 -13 -21 -24 -40 -24 -43 0 -3 133 -5 295 -5 162 0 295 3 295 6 0 3
-9 18 -20 33 -61 87 -223 582 -198 607 3 3 35 -33 71 -79 78 -100 153 -169
222 -205 44 -24 62 -27 145 -27 82 0 103 4 151 26 121 57 188 160 197 304 12
204 -99 402 -523 930 -229 285 -269 338 -313 415 -18 30 -32 50 -32 44z"/>
<path d="M5975 13855 c-8 -21 -27 -77 -41 -124 -61 -200 -169 -402 -411 -769
-391 -595 -657 -944 -1183 -1556 -847 -985 -1384 -1679 -1619 -2093 -127 -225
-293 -606 -375 -862 -108 -334 -134 -523 -117 -844 17 -326 47 -450 171 -702
240 -489 621 -808 1137 -953 95 -26 105 -27 358 -27 163 0 292 5 345 13 194
30 410 101 615 204 249 124 412 244 620 455 l150 152 35 -46 c87 -114 91 -332
15 -693 -50 -236 -166 -540 -346 -907 -181 -368 -339 -589 -542 -760 -106 -89
-112 -96 -89 -105 9 -4 596 -7 1304 -7 l1287 -1 -108 99 c-169 155 -312 345
-463 611 -276 486 -479 1077 -479 1393 0 182 63 378 123 385 22 3 34 -8 83
-73 128 -170 403 -373 710 -525 194 -95 312 -140 466 -174 233 -52 482 -55
789 -10 313 46 652 246 910 539 319 362 450 720 450 1228 0 270 -33 477 -120
737 -141 427 -439 973 -812 1487 -262 361 -437 574 -1382 1682 -626 734 -976
1224 -1220 1710 -80 159 -112 237 -192 456 -20 55 -40 104 -44 109 -5 5 -16
-8 -25 -29z m39 -644 c50 -218 213 -593 373 -856 237 -391 519 -726 1323
-1570 441 -463 560 -594 760 -835 409 -492 684 -968 856 -1475 118 -350 143
-590 98 -933 -72 -546 -383 -1004 -834 -1228 -179 -89 -435 -128 -689 -104
-485 45 -1085 389 -1364 782 -25 35 -71 115 -102 178 l-57 114 -59 -64 c-141
-155 -224 -288 -305 -487 -16 -40 -32 -73 -35 -73 -4 0 -16 28 -29 63 -61 169
-202 400 -300 491 -74 68 -66 73 -137 -69 -129 -256 -273 -411 -558 -597 -311
-204 -638 -312 -975 -325 -253 -9 -415 23 -615 122 -546 270 -861 931 -794
1665 42 467 225 915 617 1515 239 366 362 513 967 1150 615 649 858 925 1124
1275 316 416 480 712 616 1111 90 265 92 268 119 150z m15 -7001 c24 -49 45
-106 48 -127 3 -22 -6 -100 -21 -177 -14 -77 -26 -165 -26 -197 0 -133 54
-310 153 -504 117 -227 355 -562 461 -649 77 -63 52 -75 -55 -27 -35 16 -93
36 -129 45 -179 44 -505 65 -732 47 -126 -9 -148 -14 -275 -61 -76 -27 -154
-53 -173 -57 -34 -6 -34 -5 41 68 126 123 390 513 510 754 78 156 103 269 96
430 -3 93 -10 126 -39 210 l-35 100 60 118 c33 64 63 117 67 117 4 0 26 -40
49 -90z"/>
<path d="M6024 12853 c18 -166 107 -450 192 -612 250 -475 1099 -1662 1714
-2396 375 -448 678 -899 818 -1216 161 -364 226 -634 226 -939 -1 -338 -73
-587 -248 -850 -202 -303 -419 -429 -737 -430 -569 -1 -1050 423 -1403 1235
-26 61 -51 114 -56 118 -4 5 -36 -31 -71 -80 -89 -124 -187 -241 -309 -366
-125 -129 -146 -143 -181 -119 -119 80 -306 293 -458 520 -35 52 -64 92 -66
90 -1 -1 -31 -70 -65 -153 -167 -402 -314 -645 -527 -865 -168 -174 -323 -277
-508 -339 -346 -115 -740 -24 -975 225 -165 175 -292 449 -346 749 -24 135
-25 420 -1 560 23 134 80 346 124 464 72 196 257 533 446 816 115 172 195 278
422 560 543 674 960 1233 1307 1754 405 608 588 976 615 1241 6 61 5 64 -11
50 -10 -7 -53 -85 -96 -171 -229 -457 -505 -855 -969 -1399 -218 -255 -370
-423 -801 -885 -532 -570 -719 -815 -995 -1301 -373 -656 -478 -1130 -374
-1673 78 -405 299 -776 567 -955 342 -227 821 -255 1276 -75 245 97 652 388
754 539 62 93 138 246 173 353 17 51 37 102 45 115 14 21 16 22 47 6 77 -40
236 -233 338 -410 54 -94 87 -137 100 -129 4 3 28 44 53 91 100 188 308 434
387 459 32 10 44 -12 69 -124 25 -110 88 -251 149 -331 145 -193 388 -373 716
-531 226 -110 349 -144 608 -169 242 -24 518 57 781 228 343 223 596 766 596
1278 0 318 -120 705 -369 1189 -296 577 -578 937 -1526 1950 -410 439 -690
761 -851 980 -232 316 -400 601 -504 855 -28 69 -58 132 -67 140 -14 14 -15 9
-9 -47z"/>
<path d="M5952 12317 c-12 -45 -58 -156 -102 -247 -117 -246 -150 -358 -165
-555 -14 -177 16 -372 120 -800 107 -434 154 -692 156 -850 1 -38 4 -81 8 -95
7 -22 9 -18 19 28 7 30 24 131 38 225 31 216 107 597 174 877 65 272 80 373
80 531 0 213 -36 351 -166 635 -42 93 -89 204 -104 247 -15 43 -29 80 -31 82
-2 2 -14 -33 -27 -78z"/>
<path d="M5547 11753 c-57 -79 -157 -237 -157 -249 0 -6 19 -14 42 -17 26 -3
63 -21 98 -45 l57 -40 -1 199 c0 109 -1 199 -2 199 -1 0 -18 -21 -37 -47z"/>
<path d="M6386 11739 c-8 -41 -8 -319 0 -319 4 0 28 13 53 28 58 36 107 53
128 45 13 -5 15 -2 10 11 -8 21 -166 254 -177 261 -4 2 -10 -9 -14 -26z"/>
<path d="M6519 11312 c-90 -58 -145 -147 -192 -312 -34 -119 -53 -235 -82
-514 -14 -132 -27 -249 -29 -258 -7 -29 2 -21 24 22 19 36 86 128 313 423 137
179 176 293 161 475 -8 94 -20 126 -60 162 -44 38 -77 38 -135 2z"/>
<path d="M5330 11302 c-117 -58 -130 -274 -28 -476 40 -81 96 -160 221 -314
57 -70 134 -169 171 -220 38 -51 70 -92 71 -90 2 2 -3 28 -10 58 -8 30 -28
154 -45 275 -55 393 -91 560 -144 663 -55 108 -148 149 -236 104z"/>
<path d="M6806 11168 c-2 -7 -13 -85 -25 -173 -12 -88 -24 -171 -28 -185 -7
-25 -6 -25 18 -7 46 34 104 56 167 63 34 3 62 9 62 12 0 19 -175 302 -187 302
-2 0 -5 -6 -7 -12z"/>
<path d="M5096 11095 c-86 -101 -185 -259 -172 -272 3 -4 29 1 57 10 73 24 99
21 173 -18 36 -19 66 -31 66 -26 0 4 -9 33 -19 63 -21 62 -40 173 -44 258 l-2
55 -59 -70z"/>
<path d="M6821 10710 c-73 -34 -161 -103 -257 -202 -266 -275 -458 -641 -496
-943 -11 -89 -4 -205 12 -205 11 0 27 49 50 152 52 239 193 471 421 694 195
189 292 240 485 254 61 4 117 10 123 14 16 10 14 63 -5 102 -22 46 -84 109
-133 134 -53 27 -141 27 -200 0z"/>
<path d="M4973 10701 c-89 -41 -180 -160 -171 -224 3 -21 8 -22 113 -22 105 0
114 -2 185 -35 103 -48 217 -134 335 -254 207 -208 330 -417 391 -662 26 -102
46 -146 59 -132 17 16 17 146 1 231 -61 323 -310 731 -609 995 -134 119 -211
145 -304 103z"/>
<path d="M4752 10265 c-124 -28 -283 -156 -349 -280 -72 -137 -98 -325 -64
-465 41 -169 189 -334 364 -408 89 -37 201 -37 273 1 63 32 108 84 135 157 23
60 20 100 -11 160 -42 82 -115 121 -177 95 -40 -17 -63 -19 -63 -7 0 16 72 80
107 97 79 38 231 8 337 -64 156 -108 292 -374 312 -613 14 -166 -76 -389 -189
-466 -81 -56 -149 -70 -397 -81 -191 -9 -217 -16 -264 -72 -30 -35 -28 -52 11
-109 26 -39 14 -53 -19 -24 -71 65 -69 233 5 312 32 35 77 55 212 97 66 21
145 50 176 65 78 40 155 104 178 148 34 66 54 192 49 311 -3 100 -6 112 -41
183 -33 68 -84 128 -107 128 -5 0 -8 -33 -8 -72 2 -82 -18 -137 -76 -217 -96
-130 -368 -170 -539 -79 -107 57 -244 203 -305 324 -34 67 -50 150 -66 333 -9
96 -18 176 -20 178 -6 6 -203 -221 -302 -348 -368 -470 -682 -1085 -774 -1515
-27 -122 -40 -486 -21 -574 19 -86 33 -93 47 -21 32 156 135 343 254 461 135
134 264 192 435 193 129 1 178 -16 312 -106 63 -43 107 -67 113 -61 17 17 40
129 49 239 22 262 -46 497 -175 603 -94 79 -188 99 -284 63 -60 -23 -62 -17
-19 57 38 68 96 98 168 88 59 -8 172 -63 178 -87 8 -29 32 -31 50 -3 14 22 15
34 6 72 -5 26 -13 56 -17 67 -13 36 51 -45 83 -104 82 -154 124 -358 125 -601
1 -186 -10 -261 -61 -429 -36 -119 -42 -183 -24 -261 34 -145 -12 -313 -120
-433 -88 -99 -191 -148 -312 -148 -94 0 -175 39 -267 130 -86 86 -114 143
-114 236 0 161 106 279 275 306 90 14 117 6 189 -56 92 -80 131 -72 179 35 32
70 28 91 -29 144 -127 119 -328 148 -481 71 -297 -148 -418 -515 -258 -781 96
-160 308 -267 528 -266 174 1 271 48 421 209 128 136 168 244 157 420 -4 72
-10 92 -36 134 -17 28 -31 52 -31 55 0 2 14 4 30 4 39 0 82 -22 143 -73 l47
-40 38 40 c20 22 76 63 124 92 143 85 186 154 175 279 -4 34 -3 62 1 62 19 0
42 -62 42 -112 0 -215 -257 -655 -496 -849 -154 -125 -306 -210 -450 -250
-100 -28 -258 -31 -354 -6 -86 22 -253 105 -317 157 -65 53 -147 154 -173 213
-29 64 -40 67 -40 10 1 -63 32 -204 63 -280 91 -223 321 -391 597 -434 97 -15
305 -6 390 17 171 45 294 118 438 258 279 271 525 712 642 1151 17 66 35 124
40 128 4 5 38 -40 76 -100 235 -373 374 -570 462 -656 44 -43 52 -48 71 -37
62 33 380 489 472 677 44 90 53 103 66 91 7 -8 37 -82 67 -164 121 -343 280
-636 485 -892 135 -169 266 -276 448 -366 191 -95 315 -116 558 -97 159 12
211 31 318 116 104 83 242 283 292 425 22 63 36 165 27 191 -8 21 -13 16 -47
-49 -76 -144 -205 -271 -351 -343 -68 -34 -94 -42 -161 -46 -45 -3 -125 0
-180 7 -337 42 -632 242 -862 585 -86 129 -162 278 -202 395 -39 118 -39 220
0 283 28 46 37 43 16 -6 -32 -76 -12 -170 52 -253 15 -19 72 -67 126 -105 69
-50 103 -81 117 -109 11 -22 25 -40 30 -40 5 0 32 20 60 45 56 50 118 85 150
85 26 0 26 -5 -11 -91 -37 -86 -47 -175 -30 -246 7 -26 33 -91 58 -143 80
-167 205 -266 408 -325 236 -68 390 -32 540 127 183 193 221 420 108 648 -49
100 -191 247 -277 286 -129 59 -353 20 -465 -82 -53 -47 -75 -88 -62 -112 11
-21 116 -122 127 -122 4 0 21 11 38 23 48 36 71 47 131 58 74 13 150 -2 212
-44 68 -47 100 -92 120 -171 39 -161 -39 -331 -186 -403 -51 -25 -66 -28 -167
-28 -107 0 -112 1 -187 38 -88 43 -159 109 -199 183 -46 86 -58 152 -58 331 0
161 0 164 -46 340 -54 207 -64 317 -45 519 19 197 65 332 157 457 34 47 59 65
71 53 4 -3 5 -31 4 -61 l-2 -55 58 40 c103 73 211 86 285 36 49 -33 69 -67 75
-130 l6 -57 -63 40 c-105 68 -182 53 -291 -59 -67 -69 -120 -153 -148 -236
-47 -140 -47 -464 0 -557 12 -23 23 -44 25 -46 2 -2 30 21 62 51 120 111 206
142 387 142 177 1 256 -34 403 -177 147 -144 233 -295 282 -494 6 -24 15 -43
20 -43 24 0 35 91 35 300 0 186 -3 230 -23 325 -68 323 -238 695 -498 1093
-151 229 -429 603 -549 737 -58 65 -65 55 -65 -95 -1 -273 -45 -399 -194 -553
-139 -144 -220 -181 -396 -180 -145 1 -201 20 -288 98 -84 76 -112 136 -112
236 0 43 -5 81 -10 84 -16 10 -70 -54 -101 -120 -72 -153 -53 -388 45 -539 60
-92 102 -117 271 -161 54 -14 120 -35 147 -47 61 -26 134 -105 149 -161 22
-81 -8 -186 -55 -195 -16 -3 -15 0 3 36 l20 40 -22 33 c-41 60 -74 69 -309 85
-230 14 -292 27 -353 73 -74 55 -141 195 -165 344 -14 89 -12 243 4 305 44
166 180 359 310 444 146 94 326 103 401 19 16 -19 17 -24 5 -31 -8 -5 -25 -7
-37 -3 -64 15 -142 -30 -174 -102 -25 -55 -25 -154 0 -203 27 -53 121 -138
168 -152 22 -7 76 -11 124 -9 71 3 95 9 151 37 128 63 267 249 298 398 7 35
11 113 8 199 -3 141 -3 142 -42 220 -75 152 -234 276 -406 316 -86 20 -204 16
-287 -9 -279 -86 -565 -481 -698 -967 -72 -262 -145 -814 -145 -1085 0 -113 3
-131 27 -185 14 -33 28 -83 30 -112 5 -49 3 -54 -31 -88 -20 -19 -38 -48 -42
-63 -10 -51 -23 -72 -44 -72 -13 0 -22 9 -26 28 -13 57 -17 66 -55 103 -51 50
-51 85 -2 193 49 108 51 165 19 447 -73 639 -125 909 -216 1128 -137 331 -391
610 -622 683 -84 26 -242 32 -326 13z"/>
<path d="M5942 9287 c-70 -107 -71 -116 -26 -212 14 -30 27 -85 33 -135 11
-99 18 -120 37 -120 20 0 31 33 44 130 6 45 20 110 31 144 10 33 19 72 19 85
0 23 -70 154 -89 165 -5 3 -27 -22 -49 -57z"/>
<path d="M3767 7609 c-48 -25 -92 -86 -107 -149 -10 -41 -9 -58 5 -106 14 -48
28 -69 80 -121 79 -77 114 -88 220 -74 128 18 210 72 260 170 44 87 56 238 23
278 -9 11 -17 8 -42 -15 -17 -16 -44 -36 -59 -43 -22 -11 -34 -28 -47 -69 -22
-66 -94 -140 -135 -140 -36 0 -92 27 -110 54 -19 26 -19 69 0 105 16 32 33 41
74 41 35 0 43 8 30 32 -29 55 -123 73 -192 37z"/>
<path d="M8033 7615 c-18 -8 -38 -26 -45 -41 -11 -23 -10 -28 7 -40 10 -8 31
-14 45 -14 36 0 80 -42 80 -75 0 -58 -92 -99 -166 -75 -26 9 -41 24 -66 72
-52 98 -153 190 -192 175 -19 -8 -21 -61 -5 -157 13 -84 40 -138 101 -205 79
-87 107 -100 213 -100 109 0 163 23 231 98 55 61 76 124 63 191 -13 73 -58
148 -99 168 -42 21 -122 23 -167 3z"/>
<path d="M5966 5459 c-8 -14 -47 -101 -85 -194 -123 -302 -169 -390 -274 -515
-25 -30 -44 -56 -43 -58 2 -1 45 5 97 15 68 12 150 17 294 17 174 0 213 -3
302 -23 57 -12 108 -21 114 -19 7 2 -9 28 -36 58 -98 111 -135 182 -249 483
-105 279 -99 267 -120 236z"/>
<path d="M10500 4190 c66 -93 206 -510 198 -590 -3 -30 -5 -28 -68 56 -78 104
-173 186 -249 215 -121 45 -294 3 -375 -93 -60 -70 -79 -122 -84 -228 -4 -83
-1 -105 23 -175 60 -181 170 -345 540 -805 179 -223 245 -313 280 -380 17 -33
18 -34 26 -12 15 41 106 166 243 337 332 412 450 575 527 727 79 156 99 248
79 358 -22 123 -85 206 -195 257 -52 24 -72 28 -150 28 -74 0 -98 -4 -132 -22
-61 -33 -128 -94 -218 -200 -72 -86 -80 -92 -83 -69 -8 64 107 420 178 554
l39 72 -300 0 -300 0 21 -30z"/>
<path d="M10037 1919 c9 -23 152 -377 319 -788 l302 -746 124 -3 123 -2 305
747 c168 410 313 766 322 790 l18 44 -112 -3 -113 -3 -89 -227 -90 -228 -362
0 -362 0 -92 230 -92 230 -109 0 -109 0 17 -41z m1019 -651 c-13 -35 -64 -166
-114 -293 -49 -126 -104 -274 -121 -327 -18 -54 -34 -98 -36 -98 -2 0 -16 37
-31 82 -15 46 -80 219 -145 386 -66 166 -119 305 -119 307 0 3 133 5 295 5
l295 0 -24 -62z"/>
</g>
</svg>
